# xmcd
#
# Track frame offsets:
#  150
#  15959
#  32490
#  49103
#  72537
#  96383
#  111317
#  130395
#  150011
#  166716
#  184154
#  204584
#
# Disc length: 3134 seconds
#
# Revision: 0
# Processed by: cddbd v1.5.2PL0 Copyright (c) Steve Scherf et al.
# Submitted via: AltoMP3_Maker 3.0
#
DISCID=960c3c0c
DTITLE=Three Car Garage - Spoonful Of Blues
DYEAR=2000
DGENRE=Blues
TTITLE0=Who Do You Love
TTITLE1=Evil Going Down
TTITLE2=Cold Blooded World
TTITLE3=I Got Love If You Want It
TTITLE4=The Blues
TTITLE5=Bottle Up And Go
TTITLE6=Lovehunter
TTITLE7=Jinx Killing Blues
TTITLE8=Juke Joint Saturday Night
TTITLE9=Can't Get No Rest
TTITLE10=Summertime In Bluestown
TTITLE11=A Woman Like You
EXTD=
EXTT0=
EXTT1=
EXTT2=
EXTT3=
EXTT4=
EXTT5=
EXTT6=
EXTT7=
EXTT8=
EXTT9=
EXTT10=
EXTT11=
PLAYORDER=
